# xmcd
#
# Track frame offsets: 
#        183
#        13533
#        29190
#        43008
#        55363
#        66305
#        77640
#        90610
#        103500
#        116285
#        128738
#        142090
#        154658
#        166328
#        177710
#        188410
#        199703
#        212190
#        226865
#        239685
#
# Disc length: 3335 seconds
#
# Revision: 0
# Processed by: cddbd v1.4PL0 Copyright (c) Steve Scherf et al.
# Submitted via: ExactAudioCopy v0.95a3
#
DISCID=190d0514
DTITLE=Elmore James - 20 Blues Greats
DYEAR=1988
DGENRE=Blues
TTITLE0=Dust My Broom
TTITLE1=I Believe
TTITLE2=Hand In Hand
TTITLE3=Blues Before Sunrise
TTITLE4=Coming Home
TTITLE5=Strange Kinda Feeling
TTITLE6=I Was A Fool
TTITLE7=Baby What's Wrong
TTITLE8=The Sky Is Crying
TTITLE9=Late Hours At Midnight
TTITLE10=Standing At The Crossroads
TTITLE11=Early In The Morning
TTITLE12=Rock My Baby Tonight
TTITLE13=Rollin And Tumblin
TTITLE14=I Can't Stop Lovin
TTITLE15=Look On Yonder Wall
TTITLE16=Dark And Dreary
TTITLE17=1839 Blues
TTITLE18=Sinful Woman
TTITLE19=I Done Somebody Wrong
EXTD=
EXTT0=
EXTT1=
EXTT2=
EXTT3=
EXTT4=
EXTT5=
EXTT6=
EXTT7=
EXTT8=
EXTT9=
EXTT10=
EXTT11=
EXTT12=
EXTT13=
EXTT14=
EXTT15=
EXTT16=
EXTT17=
EXTT18=
EXTT19=
PLAYORDER=
